<svg id="Слой_1" data-name="Слой 1" xmlns="http://www.w3.org/2000/svg" viewBox="0 0 399.13 85.31"><defs><style>.cls-1{fill:#d04a44;}.cls-2{fill:#4d59a1;}.cls-3{fill:#d24a43;}.cls-4{fill:#201600;}</style></defs><title>бишкек 24 logo (исходник)</title><path class="cls-1" d="M482.52,447.15H368.2a3,3,0,0,1-3-3.52l3.49-19.85-11.19-8.59a4.26,4.26,0,0,1,.35-7l15.25-9.48L376.26,381a3,3,0,0,1,3-2.48H493.53a3,3,0,0,1,3,3.52l-11,62.64A3,3,0,0,1,482.52,447.15Zm-110.74-6H480l10-56.64H381.73l-2.91,16.57a3,3,0,0,1-1.37,2L363.19,412l10.64,8.17A3,3,0,0,1,375,423Z" transform="translate(-97.4 -378.51)"/><path class="cls-2" d="M137.79,393.57l-1.2,6.85H111.25l-1.15,6.69h15.84c7.37,0,11.44,1.57,11.44,7.84,0,4.44-1.62,9.77-4.6,12.18-2.72,2.2-6.27,2.72-10.66,2.72H97.4l6.38-36.27h34Zm-30.47,29.06h15c1.51,0,3.55-.1,4.65-1s1.57-4,1.57-4.86c0-1.67-.94-2.46-4.44-2.46H108.79Z" transform="translate(-97.4 -378.51)"/><path class="cls-2" d="M176.31,429.84l5.12-29.06h-1.2l-26.91,29.06H138.42l6.38-36.27h8.68l-5.12,29.06h1.2l27.23-29.06h14.58L185,429.84h-8.68Z" transform="translate(-97.4 -378.51)"/><path class="cls-2" d="M176.31,429.84l6.38-36.27h8.68l-5.12,29.06h16.88l5.12-29.06h8.67l-5.12,29.06h16.88l5.12-29.06h8.67l-6.38,36.27H176.31Z" transform="translate(-97.4 -378.51)"/><path class="cls-2" d="M240.12,407.1h5.12l18.19-13.54h13l-24.35,17,18.81,19.28H258.15l-14.06-15.52h-5.28l-2.72,15.52h-8.67l6.38-36.27h8.68Z" transform="translate(-97.4 -378.51)"/><path class="cls-2" d="M278.48,393.57h37.05l-1.2,6.85H286l-1.41,7.94H312l-1.1,6.32H283.44L282,423h28.38l-1.2,6.85H272.1Z" transform="translate(-97.4 -378.51)"/><path class="cls-2" d="M324.94,407.1h5.12l18.19-13.54h13l-24.35,17,18.81,19.28H343l-14.06-15.52h-5.28l-2.72,15.52h-8.67l6.38-36.27h8.68Z" transform="translate(-97.4 -378.51)"/><path class="cls-3" d="M415.23,417l-11.63.69c-5.33.32-6.61,1.17-7,3.52l-0.32,2h31.15l-1.23,7h-40l1.49-8.43c1-5.81,3.89-10.78,15.42-11.42l11.89-.64c5.07-.27,7-2.08,7-6.4,0-2.35-1.6-3.15-6.56-3.15H409.2c-8.53,0-9.12,1.33-10.08,6.67h-8.85c1.39-7.79,3.73-13.66,15.68-13.66h13.33c8.53,0,11.79,1.87,11.79,7.73a25.22,25.22,0,0,1-.48,4.53C429.21,413.25,423.18,416.56,415.23,417Z" transform="translate(-97.4 -378.51)"/><path class="cls-3" d="M468.84,414.9h8l-1.33,7.36h-7.95l-1.39,7.95h-8.85l1.39-7.95H431.07l2.19-12.43,23.58-16.64h15.84Zm-6.29-14.35h-2.08l-19,13.18-0.21,1.17H460Z" transform="translate(-97.4 -378.51)"/><path class="cls-4" d="M367.94,460a6.42,6.42,0,0,1,.12-1.25,5.89,5.89,0,0,1,.38-1.21,5.4,5.4,0,0,1,.64-1.09,4.28,4.28,0,0,1,.9-0.89,4.16,4.16,0,0,1,1.16-.59,4.54,4.54,0,0,1,1.44-.22,4.42,4.42,0,0,1,1.28.17,3.53,3.53,0,0,1,1,.46,3.07,3.07,0,0,1,.71.68,3.85,3.85,0,0,1,.48.81,4,4,0,0,1,.26.88,5,5,0,0,1,.08.87,6.46,6.46,0,0,1-.12,1.25,5.91,5.91,0,0,1-.38,1.21,5.4,5.4,0,0,1-.64,1.09,4.28,4.28,0,0,1-.9.89,4.15,4.15,0,0,1-1.16.59,4.54,4.54,0,0,1-1.44.22,4.41,4.41,0,0,1-1.29-.17,3.58,3.58,0,0,1-1-.46,3,3,0,0,1-.71-0.68,3.76,3.76,0,0,1-.47-0.82,4.17,4.17,0,0,1-.26-0.88A4.91,4.91,0,0,1,367.94,460Zm1.81,0.08a2.89,2.89,0,0,0,.17,1,1.94,1.94,0,0,0,.45.71,1.79,1.79,0,0,0,.65.41,2.27,2.27,0,0,0,.78.13,2.28,2.28,0,0,0,1.7-.69,2.84,2.84,0,0,0,.51-0.71,4.61,4.61,0,0,0,.32-0.83,5.49,5.49,0,0,0,.17-0.84,6.33,6.33,0,0,0,.05-0.76,2.88,2.88,0,0,0-.17-1,2,2,0,0,0-.45-0.71,1.79,1.79,0,0,0-.65-0.41,2.27,2.27,0,0,0-.78-0.13,2.35,2.35,0,0,0-1,.19,2.4,2.4,0,0,0-.73.5,2.79,2.79,0,0,0-.51.71,4.71,4.71,0,0,0-.32.83,5.39,5.39,0,0,0-.17.84A6.35,6.35,0,0,0,369.75,460Z" transform="translate(-97.4 -378.51)"/><path class="cls-4" d="M378.46,454.91h7l-1.57,8.69h-1.82l1.31-7.19H380l-1.31,7.19h-1.81Z" transform="translate(-97.4 -378.51)"/><path class="cls-4" d="M387.2,454.91H393l-0.27,1.5h-4l-0.34,1.93H392l-0.27,1.5h-3.65l-0.4,2.26h4.19l-0.27,1.5h-6Z" transform="translate(-97.4 -378.51)"/><path class="cls-4" d="M394.59,454.91h3a4.35,4.35,0,0,1,1.43.2,2.59,2.59,0,0,1,.94.55,2,2,0,0,1,.53.8,2.78,2.78,0,0,1,.16.95,3.71,3.71,0,0,1-.22,1.32,2.56,2.56,0,0,1-.66,1,3,3,0,0,1-1.1.63,4.88,4.88,0,0,1-1.53.22h-1.74l-0.54,3H393Zm1.06,4.17h1.61A2.06,2.06,0,0,0,398,459a1.4,1.4,0,0,0,.5-0.32,1.25,1.25,0,0,0,.29-0.47,1.71,1.71,0,0,0,.09-0.57,1.81,1.81,0,0,0-.06-0.46,0.92,0.92,0,0,0-.2-0.38,1,1,0,0,0-.38-0.26,1.64,1.64,0,0,0-.6-0.09h-1.52Z" transform="translate(-97.4 -378.51)"/><path class="cls-4" d="M402.66,454.91h5.77l-0.27,1.5h-4l-0.34,1.93h3.66l-0.27,1.5h-3.65l-0.4,2.26h4.19l-0.27,1.5h-6Z" transform="translate(-97.4 -378.51)"/><path class="cls-4" d="M416.8,459l2.52,4.56h-2l-2-3.77h-0.38l-0.69,3.77h-1.65l0.69-3.77H413l-2.9,3.77H408l3.82-4.61-2.4-4.08h2l1.87,3.54h0.31l0.64-3.54h1.66l-0.67,3.54h0.28l3-3.54h2.1Z" transform="translate(-97.4 -378.51)"/><path class="cls-4" d="M424.27,454.92h2.12l1.1,8.68H425.7l-0.16-1.71h-3.06l-0.83,1.71h-1.93Zm0.77,1.81h0l-1.8,3.66h2.18Z" transform="translate(-97.4 -378.51)"/><path class="cls-4" d="M435.23,463.6h-1.82l0.62-3.45h-1.66a3.85,3.85,0,0,0-.53,0,0.73,0.73,0,0,0-.35.14,0.92,0.92,0,0,0-.25.32,4.83,4.83,0,0,0-.23.56l-0.58,1.62q-0.07.19-.13,0.32l-0.1.21-0.08.14-0.07.11h-2l0-.27a0.57,0.57,0,0,0,.17-0.07,0.4,0.4,0,0,0,.12-0.13,1.12,1.12,0,0,0,.11-0.23l0.13-.38,0.51-1.54q0.14-.41.24-0.65a1.46,1.46,0,0,1,.24-0.39,0.89,0.89,0,0,1,.32-0.23,3.14,3.14,0,0,1,.49-0.15,1.83,1.83,0,0,1-.54-0.25,1.68,1.68,0,0,1-.36-0.33,1.55,1.55,0,0,1-.22-0.37,2.23,2.23,0,0,1-.12-0.35,1.69,1.69,0,0,1,0-.3c0-.09,0-0.15,0-0.19a3.53,3.53,0,0,1,.06-0.68,2.93,2.93,0,0,1,.2-0.64,2.76,2.76,0,0,1,.34-0.57,2.35,2.35,0,0,1,.48-0.46,2.55,2.55,0,0,1,.41-0.24,2.5,2.5,0,0,1,.48-0.17,4.18,4.18,0,0,1,.62-0.09q0.35,0,.82,0h4.22Zm-0.52-7.19h-2.29a2.59,2.59,0,0,0-.4,0,2,2,0,0,0-.39.12,1.07,1.07,0,0,0-.34.23,1.08,1.08,0,0,0-.24.38,1.52,1.52,0,0,0-.09.56,0.91,0.91,0,0,0,.15.57,0.9,0.9,0,0,0,.37.29,1.4,1.4,0,0,0,.46.11h2.35Z" transform="translate(-97.4 -378.51)"/><path class="cls-4" d="M441.85,454.91h3.4a5.47,5.47,0,0,1,1.4.15,2.48,2.48,0,0,1,.93.45,1.67,1.67,0,0,1,.52.71,2.66,2.66,0,0,1,.16,1,2.38,2.38,0,0,1-.09.64,1.92,1.92,0,0,1-.26.56,1.87,1.87,0,0,1-.44.46,2.33,2.33,0,0,1-.64.32,3.22,3.22,0,0,1,.44.29,1.61,1.61,0,0,1,.33.36,1.66,1.66,0,0,1,.21.46,2.06,2.06,0,0,1,.07.57,3,3,0,0,1-.21,1.17,2.27,2.27,0,0,1-.63.87,2.81,2.81,0,0,1-1,.54,4.71,4.71,0,0,1-1.39.19h-4.37Zm0.51,7.19h2.23a1.74,1.74,0,0,0,.7-0.12,1.37,1.37,0,0,0,.46-0.31,1.15,1.15,0,0,0,.25-0.41,1.33,1.33,0,0,0,.08-0.43,1.1,1.1,0,0,0-.09-0.48,0.9,0.9,0,0,0-.26-0.33,1.09,1.09,0,0,0-.4-0.19,2.16,2.16,0,0,0-.52-0.06h-2Zm0.68-3.76h2.09a1.5,1.5,0,0,0,1-.28,1,1,0,0,0,.34-0.82,0.84,0.84,0,0,0-.09-0.4,0.67,0.67,0,0,0-.24-0.25,1,1,0,0,0-.36-0.13,2.44,2.44,0,0,0-.44,0h-1.94Z" transform="translate(-97.4 -378.51)"/><path class="cls-4" d="M450.59,454.91h3a4.35,4.35,0,0,1,1.43.2,2.59,2.59,0,0,1,.94.55,2,2,0,0,1,.53.8,2.78,2.78,0,0,1,.16.95,3.71,3.71,0,0,1-.22,1.32,2.56,2.56,0,0,1-.66,1,3,3,0,0,1-1.1.63,4.88,4.88,0,0,1-1.53.22h-1.74l-0.54,3H449Zm1.06,4.17h1.61A2.06,2.06,0,0,0,454,459a1.4,1.4,0,0,0,.5-0.32,1.25,1.25,0,0,0,.29-0.47,1.71,1.71,0,0,0,.09-0.57,1.81,1.81,0,0,0-.06-0.46,0.92,0.92,0,0,0-.2-0.38,1,1,0,0,0-.38-0.26,1.64,1.64,0,0,0-.6-0.09h-1.52Z" transform="translate(-97.4 -378.51)"/><path class="cls-4" d="M458.66,454.91h5.77l-0.27,1.5h-4l-0.34,1.93h3.66l-0.27,1.5h-3.65l-0.4,2.26h4.19l-0.27,1.5h-6Z" transform="translate(-97.4 -378.51)"/><path class="cls-4" d="M466,454.92h2.65l0.37,6.43h0l2.66-6.43h2.74l-1.57,8.68h-1.7l1.44-7.43h0l-3.11,7.43h-1.61l-0.5-7.43h0l-1.18,7.43h-1.69Z" transform="translate(-97.4 -378.51)"/><path class="cls-4" d="M481.6,463.6h-1.82l0.62-3.45h-1.66a3.85,3.85,0,0,0-.53,0,0.73,0.73,0,0,0-.35.14,0.92,0.92,0,0,0-.25.32,4.83,4.83,0,0,0-.23.56l-0.58,1.62q-0.07.19-.13,0.32l-0.1.21-0.08.14-0.07.11h-2l0-.27a0.57,0.57,0,0,0,.17-0.07,0.4,0.4,0,0,0,.12-0.13,1.12,1.12,0,0,0,.11-0.23l0.13-.38,0.51-1.54q0.14-.41.24-0.65A1.46,1.46,0,0,1,476,460a0.89,0.89,0,0,1,.32-0.23,3.14,3.14,0,0,1,.49-0.15,1.83,1.83,0,0,1-.54-0.25,1.68,1.68,0,0,1-.36-0.33,1.55,1.55,0,0,1-.22-0.37,2.23,2.23,0,0,1-.12-0.35,1.69,1.69,0,0,1,0-.3c0-.09,0-0.15,0-0.19a3.53,3.53,0,0,1,.06-0.68,2.93,2.93,0,0,1,.2-0.64,2.76,2.76,0,0,1,.34-0.57,2.35,2.35,0,0,1,.48-0.46,2.55,2.55,0,0,1,.41-0.24,2.5,2.5,0,0,1,.48-0.17,4.18,4.18,0,0,1,.62-0.09q0.35,0,.82,0h4.22Zm-0.52-7.19h-2.29a2.59,2.59,0,0,0-.4,0,2,2,0,0,0-.39.12,1.07,1.07,0,0,0-.34.23,1.08,1.08,0,0,0-.24.38,1.52,1.52,0,0,0-.09.56,0.91,0.91,0,0,0,.15.57,0.9,0.9,0,0,0,.37.29,1.4,1.4,0,0,0,.46.11h2.35Z" transform="translate(-97.4 -378.51)"/></svg>